<svg width="35" height="35" viewBox="0 0 35 35" fill="none" xmlns="http://www.w3.org/2000/svg">
<path d="M33.3379 13.3328H35.0004V21.6671H33.3379V13.3328Z" fill="white"/>
<path d="M31.6641 21.6672H33.3375V25.0032H31.6641V21.6672Z" fill="white"/>
<path d="M31.6641 9.99683H33.3375V13.3328H31.6641V9.99683Z" fill="white"/>
<path d="M30.001 25.0032H31.6634V28.3282H30.001V25.0032Z" fill="white"/>
<path d="M30.001 6.66101H31.6634V9.99695H30.001V6.66101Z" fill="white"/>
<path d="M28.3271 28.3282H30.0006V30.0017H28.3271V28.3282Z" fill="white"/>
<path d="M28.3271 4.99841H30.0006V6.66091H28.3271V4.99841Z" fill="white"/>
<path d="M25.0029 30.0016H28.3279V31.6641H25.0029V30.0016Z" fill="white"/>
<path d="M26.6645 13.3328H25.002V11.6703H14.9944V8.33435H13.3319V9.99685H11.6694V11.6703H9.99603V13.3328H8.33356V14.9953H6.66016V16.6687H8.33356V18.3312H9.99603V20.0047H11.6694V21.6672H13.3319V23.3297H14.9944V20.0047H21.6661V21.6672H23.3286V23.3297H21.6661V25.0031H20.0037V26.6656H23.3286V25.0031H26.6645V23.3297H28.327V14.9953H26.6645V13.3328Z" fill="white"/>
<path d="M25.0029 3.33582H28.3279V4.99832H25.0029V3.33582Z" fill="white"/>
<path d="M21.667 31.6642H25.0029V33.3376H21.667V31.6642Z" fill="white"/>
<path d="M21.667 1.6626H25.0029V3.33604H21.667V1.6626Z" fill="white"/>
<path d="M13.333 33.3375H21.6672V35H13.333V33.3375Z" fill="white"/>
<path d="M13.333 0H21.6672V1.6625H13.333V0Z" fill="white"/>
<path d="M9.99707 31.6642H13.3329V33.3376H9.99707V31.6642Z" fill="white"/>
<path d="M9.99707 1.6626H13.3329V3.33604H9.99707V1.6626Z" fill="white"/>
<path d="M6.66016 30.0016H9.99603V31.6641H6.66016V30.0016Z" fill="white"/>
<path d="M6.66016 3.33582H9.99603V4.99832H6.66016V3.33582Z" fill="white"/>
<path d="M4.99805 28.3282H6.66052V30.0017H4.99805V28.3282Z" fill="white"/>
<path d="M4.99805 4.99841H6.66052V6.66091H4.99805V4.99841Z" fill="white"/>
<path d="M3.33594 25.0032H4.99841V28.3282H3.33594V25.0032Z" fill="white"/>
<path d="M3.33594 6.66101H4.99841V9.99695H3.33594V6.66101Z" fill="white"/>
<path d="M1.66211 21.6672H3.33552V25.0032H1.66211V21.6672Z" fill="white"/>
<path d="M1.66211 9.99683H3.33552V13.3328H1.66211V9.99683Z" fill="white"/>
<path d="M0 13.3328H1.66247V21.6671H0V13.3328Z" fill="white"/>
</svg>
