<svg width="37" height="33" viewBox="0 0 37 33" fill="none" xmlns="http://www.w3.org/2000/svg">
<g clip-path="url(#clip0_60_411)">
<path d="M14.9797 0V1.5675H11.4531V3.14531H14.9797V4.71281H16.7372V3.14531H20.2638V4.71281H22.0212V3.14531H25.5478V4.71281H27.3169V3.14531H29.0744V6.29062H30.8319V4.71281H32.6009V31.4325H13.2222V33H34.3584V31.4325H36.1159V4.71281H34.3584V3.14531H32.6009V1.5675H27.3169V0H25.5478V1.5675H22.0212V0H20.2638V1.5675H16.7372V0L14.9797 0Z" fill="white"/>
<path d="M27.3164 6.29065H29.0739V9.42565H27.3164V6.29065Z" fill="white"/>
<path d="M25.5479 12.571H30.8319V11.0035H27.3169V9.42566H25.5479V12.571Z" fill="white"/>
<path d="M23.7905 15.7162H22.0215V18.8615H23.7905V17.2837H30.8321V15.7162H25.548V12.5709H23.7905V15.7162Z" fill="white"/>
<path d="M20.2637 21.9966H30.8318V20.4291H22.0212V18.8616H20.2637V21.9966Z" fill="white"/>
<path d="M18.5059 12.5709H20.2634V14.1487H18.5059V12.5709Z" fill="white"/>
<path d="M18.5059 9.42566H20.2634V11.0035H18.5059V9.42566Z" fill="white"/>
<path d="M14.9795 25.1418H30.8317V26.7197H14.9795V25.1418Z" fill="white"/>
<path d="M13.2217 14.1488H18.5057V15.7163H13.2217V14.1488Z" fill="white"/>
<path d="M13.2217 9.42566H14.9792V11.0035H13.2217V9.42566Z" fill="white"/>
<path d="M13.2223 23.5744H20.2638V21.9966H2.64258V23.5744H11.4532V31.4325H13.2223V23.5744Z" fill="white"/>
<path d="M11.4531 12.5709H13.2222V14.1487H11.4531V12.5709Z" fill="white"/>
<path d="M9.69531 3.14526H11.4528V6.29058H9.69531V3.14526Z" fill="white"/>
<path d="M7.92676 6.29065H9.69582V9.42565H7.92676V6.29065Z" fill="white"/>
<path d="M6.16895 9.42566H7.92645V12.571H6.16895V9.42566Z" fill="white"/>
<path d="M4.41113 12.5709H6.16863V15.7162H4.41113V12.5709Z" fill="white"/>
<path d="M2.64258 15.7163H4.41164V18.8616H2.64258V15.7163Z" fill="white"/>
<path d="M0.884766 18.8616H2.64227V21.9966H0.884766V18.8616Z" fill="white"/>
</g>
<defs>
<clipPath id="clip0_60_411">
<rect width="37" height="33" fill="white"/>
</clipPath>
</defs>
</svg>
